<?xml version="1.0" standalone="no"?>
<!DOCTYPE svg PUBLIC "-//W3C//DTD SVG 20010904//EN"
 "http://www.w3.org/TR/2001/REC-SVG-20010904/DTD/svg10.dtd">
<svg version="1.0" xmlns="http://www.w3.org/2000/svg"
 width="250.000000pt" height="250.000000pt" viewBox="0 0 250.000000 250.000000"
 preserveAspectRatio="xMidYMid meet">

<g transform="translate(0.000000,250.000000) scale(0.100000,-0.100000)"
fill="#000000" stroke="none">
<path d="M1216 2434 c-13 -12 -16 -40 -16 -134 0 -125 8 -150 50 -150 42 0 50
25 50 150 0 125 -8 150 -50 150 -10 0 -26 -7 -34 -16z"/>
<path d="M472 2128 c-29 -29 -13 -61 71 -145 84 -84 116 -100 145 -71 29 29
13 61 -71 145 -84 84 -116 100 -145 71z"/>
<path d="M1883 2057 c-84 -84 -100 -116 -71 -145 29 -29 61 -13 145 71 84 84
100 116 71 145 -29 29 -61 13 -145 -71z"/>
<path d="M1105 2034 c-40 -7 -111 -34 -165 -60 -79 -39 -110 -62 -181 -133
-71 -71 -94 -102 -133 -181 -93 -189 -100 -398 -20 -593 31 -77 116 -203 205
-302 39 -44 85 -100 103 -125 l31 -45 5 -170 c4 -144 8 -175 24 -202 23 -38
83 -73 124 -73 16 0 50 -11 73 -25 56 -32 103 -32 154 0 22 13 55 25 73 25 47
0 104 32 127 72 17 28 21 56 25 204 6 197 0 183 136 334 146 163 217 290 248
442 33 159 13 306 -61 458 -38 79 -60 109 -132 181 -71 71 -102 94 -181 133
-148 72 -294 92 -455 60z m270 -99 c114 -24 209 -77 295 -164 148 -148 204
-328 169 -541 -22 -134 -86 -247 -238 -415 -45 -50 -95 -118 -112 -153 l-32
-62 -208 0 -208 0 -24 53 c-13 29 -53 86 -88 126 -181 207 -236 297 -263 433
-44 215 12 408 163 559 149 149 342 207 546 164z m75 -1485 l0 -50 -138 0
c-148 0 -162 -4 -162 -50 0 -46 14 -50 162 -50 78 0 138 -4 138 -9 0 -5 -7
-17 -16 -25 -23 -24 -345 -24 -368 0 -21 21 -20 31 3 39 11 3 23 15 26 26 9
27 -3 57 -26 64 -15 5 -19 16 -19 56 l0 49 200 0 200 0 0 -50z"/>
<path d="M154 1379 c-17 -19 -17 -23 -3 -47 15 -27 16 -27 141 -30 134 -3 158
5 158 48 0 42 -24 50 -154 50 -112 0 -125 -2 -142 -21z"/>
<path d="M2054 1379 c-17 -19 -17 -23 -3 -47 15 -27 16 -27 141 -30 134 -3
158 5 158 48 0 42 -24 50 -154 50 -112 0 -125 -2 -142 -21z"/>
<path d="M554 728 c-86 -82 -110 -119 -95 -147 15 -27 38 -33 70 -17 39 21
171 163 171 184 0 23 -30 52 -53 52 -9 0 -51 -32 -93 -72z"/>
<path d="M1816 784 c-28 -28 -17 -52 56 -130 82 -86 119 -110 147 -95 50 27
32 68 -72 169 -77 74 -103 85 -131 56z"/>
</g>
</svg>
